<?xml version="1.0" encoding="utf-8"?>
<!-- Generator: Adobe Illustrator 23.0.3, SVG Export Plug-In . SVG Version: 6.00 Build 0)  -->
<svg version="1.1" id="Layer" xmlns="http://www.w3.org/2000/svg" xmlns:xlink="http://www.w3.org/1999/xlink" x="0px" y="0px"
	 viewBox="0 0 512 512" style="enable-background:new 0 0 512 512;" xml:space="preserve">
<style type="text/css">
	.st0{fill:#1E2D58;}
	.st1{fill:#FECB02;}
</style>
<path class="st0" d="M392,64H136c-35.3,0-64,28.7-64,64v256c0,35.3,28.7,64,64,64h64c8.8,0,16-7.2,16-16s-7.2-16-16-16h-64
	c-17.6,0-32-14.4-32-32V128c0-17.6,14.4-32,32-32h256c17.6,0,32,14.4,32,32v256c0,17.6-14.4,32-32,32h-64c-8.8,0-16,7.2-16,16
	s7.2,16,16,16h64c35.3,0,64-28.7,64-64V128C456,92.7,427.3,64,392,64z"/>
<path class="st1" d="M339.4,291.2c6.2-6.3,6-16.5-0.3-22.6l-52.5-51.2c-6-6-14.1-9.4-22.6-9.4s-16.6,3.3-22.5,9.2l-52.7,51.3
	c-6.3,6.2-6.5,16.3-0.3,22.6c3.1,3.2,7.3,4.8,11.5,4.8c4,0,8.1-1.5,11.2-4.5l53-51.3l52.7,51.3C323.1,297.6,333.3,297.5,339.4,291.2
	z"/>
</svg>
